<?xml version="1.0" encoding="utf-8"?>
<!-- Generator: Adobe Illustrator 22.1.0, SVG Export Plug-In . SVG Version: 6.00 Build 0)  -->
<svg version="1.1" id="Layer_1" xmlns="http://www.w3.org/2000/svg" xmlns:xlink="http://www.w3.org/1999/xlink" x="0px" y="0px"
	 viewBox="0 0 90 90" enable-background="new 0 0 90 90" xml:space="preserve">
<path fill="#FFFFFF" d="M80,55.8l0-21.6l-70,0l0,21.6L80,55.8z M12.4,53.4l0-16.8l65.2,0l0,16.8h-3l0-11.5l-2.4,0l0,11.5l-3.1,0
	l0-5.6l-2.4,0l0,5.6l-3.4,0l0-5.6l-2.4,0l0,5.6l-3.5,0l0-5.6l-2.4,0l0,5.6l-3.1,0l0-5.6l-2.4,0l0,5.6l-3,0l0-11.5l-2.4,0l0,11.5
	l-3.1,0v-5.6l-2.4,0l0,5.6l-3.4,0l0-5.6l-2.4,0v5.6l-3.5,0l0-5.6l-2.4,0l0,5.6l-3.1,0l0-5.6l-2.4,0l0,5.6H18l0-11.5l-2.4,0v11.5"/>
</svg>
