<?xml version="1.0" encoding="utf-8"?>
<!-- Generator: Adobe Illustrator 22.1.0, SVG Export Plug-In . SVG Version: 6.00 Build 0)  -->
<svg version="1.1" id="Layer_1" xmlns="http://www.w3.org/2000/svg" xmlns:xlink="http://www.w3.org/1999/xlink" x="0px" y="0px"
	 viewBox="0 0 90 90" style="enable-background:new 0 0 90 90;" xml:space="preserve">
<style type="text/css">
	.st0{fill:#FFFFFF;}
	.st1{fill-rule:evenodd;clip-rule:evenodd;fill:#FFFFFF;}
</style>
<g>
	<path class="st0" d="M65.4,77.6H24.6c-6.7,0-12.2-5.5-12.2-12.2V24.6c0-6.7,5.5-12.2,12.2-12.2h40.8c6.7,0,12.2,5.5,12.2,12.2v40.8
		C77.6,72.1,72.1,77.6,65.4,77.6z M24.6,15.5c-5,0-9.1,4.1-9.1,9.1v40.8c0,5,4.1,9.1,9.1,9.1h40.8c5,0,9.1-4.1,9.1-9.1V24.6
		c0-5-4.1-9.1-9.1-9.1H24.6z"/>
	<path class="st0" d="M40.4,46.2c0.4,0,0.8-0.4,0.8-0.8c0-0.4-0.4-0.8-0.8-0.8c-0.4,0-0.8,0.4-0.8,0.8
		C39.6,45.8,39.9,46.2,40.4,46.2"/>
	<path class="st1" d="M56,46c0,0-4.8-9.8-5-10.2c-0.2-0.3-0.4-0.5-0.7-0.5c-0.4-0.1-0.8,0.1-0.8,0.1s-4.4,1.8-4.8,2
		c-0.5,0.2-1,0.7-1,0.7s-1.8,1.8-3.9,3.9c-0.1,0.1-0.1,0.2,0,0.3c0.1,0.1,0.4,0,0.4,0c1.7,0,3.1,1.2,3.1,3c0,1.6-1.3,3-3.1,3
		c-1.5,0-3-1.3-2.9-3.1c0-0.2,0.1-0.3,0-0.4c-0.1-0.1-0.2,0-0.3,0c-1.5,1.5-2.7,2.8-2.9,2.9c-0.2,0.2-0.3,0.5-0.3,0.8
		c0,0.5,0.3,0.7,0.3,0.7s3.4,2.8,3.8,3.1c0.4,0.2,0.7,0.2,0.7,0.2h11c0,0,0.4,0,0.6-0.1c0.2-0.1,0.5-0.4,0.5-0.4s4.8-4.6,5-4.8
		c0.2-0.2,0.4-0.5,0.4-0.7C56.2,46.4,56,46,56,46 M47.5,45.2c-0.2,0.2-0.3,0.6-0.3,1.3c0,0.4-0.1,0.7-0.4,0.9
		c-0.3,0.3-0.6,0.4-0.9,0.4c-0.4,0-0.7-0.1-0.9-0.4c-0.3-0.3-0.4-0.6-0.4-0.9c0-0.4,0.1-0.7,0.4-0.9c0.3-0.3,0.6-0.4,0.9-0.4
		c0.7,0,1.1-0.1,1.3-0.3c0.2-0.2,0.3-0.6,0.3-1.3c0-0.4,0.1-0.7,0.4-0.9c0.3-0.3,0.6-0.4,0.9-0.4c0.4,0,0.7,0.1,0.9,0.4
		c0.3,0.3,0.4,0.6,0.4,0.9c0,0.4-0.1,0.7-0.4,0.9c-0.3,0.3-0.6,0.4-0.9,0.4C48.2,44.9,47.7,45,47.5,45.2 M50.5,48.1
		c-0.2,0.2-0.3,0.6-0.3,1.3c0,0.4-0.1,0.7-0.4,0.9c-0.3,0.3-0.6,0.4-0.9,0.4c-0.4,0-0.7-0.1-0.9-0.4c-0.3-0.3-0.4-0.6-0.4-0.9
		c0-0.4,0.1-0.7,0.4-0.9c0.3-0.3,0.6-0.4,0.9-0.4c0.7,0,1.1-0.1,1.3-0.3c0.2-0.2,0.3-0.6,0.3-1.3c0-0.4,0.1-0.7,0.4-0.9
		c0.3-0.3,0.6-0.4,0.9-0.4c0.4,0,0.7,0.1,0.9,0.4c0.3,0.3,0.4,0.6,0.4,0.9c0,0.4-0.1,0.7-0.4,0.9c-0.3,0.3-0.6,0.4-0.9,0.4
		C51.1,47.8,50.7,47.9,50.5,48.1 M45.1,44.3c-0.2-0.2-0.3-0.5-0.3-0.7c0-0.3,0.1-0.5,0.3-0.7c0.2-0.2,0.5-0.3,0.7-0.3
		c0.3,0,0.5,0.1,0.7,0.3c0.2,0.2,0.3,0.5,0.3,0.7c0,0.3-0.1,0.6-0.3,0.8c-0.2,0.2-0.4,0.3-0.7,0.3S45.3,44.5,45.1,44.3 M51,44.3
		c-0.2-0.2-0.3-0.5-0.3-0.7c0-0.3,0.1-0.5,0.3-0.7c0.2-0.2,0.5-0.3,0.7-0.3c0.3,0,0.5,0.1,0.7,0.3c0.2,0.2,0.3,0.5,0.3,0.7
		c0,0.3-0.1,0.6-0.3,0.8c-0.2,0.2-0.4,0.3-0.7,0.3C51.5,44.6,51.2,44.5,51,44.3 M48.1,47.2c-0.2-0.2-0.3-0.5-0.3-0.7
		c0-0.3,0.1-0.5,0.3-0.7c0.2-0.2,0.5-0.3,0.7-0.3c0.3,0,0.5,0.1,0.7,0.3c0.2,0.2,0.3,0.4,0.3,0.7c0,0.3-0.1,0.5-0.3,0.8
		c-0.2,0.2-0.4,0.3-0.7,0.3C48.5,47.5,48.3,47.4,48.1,47.2 M45.1,50.2c-0.2-0.2-0.3-0.5-0.3-0.7c0-0.3,0.1-0.5,0.3-0.7
		c0.2-0.2,0.5-0.3,0.7-0.3c0.3,0,0.5,0.1,0.7,0.3c0.2,0.2,0.3,0.5,0.3,0.7c0,0.3-0.1,0.5-0.3,0.8c-0.2,0.2-0.4,0.3-0.7,0.3
		S45.3,50.4,45.1,50.2"/>
	<path class="st0" d="M45,21.2c-8.7,0-16.3,4.7-20.4,11.6c-0.2,0.2-0.3,0.4-0.3,0.6c-1.9,3.4-3.1,7.4-3.1,11.6c0,4.2,1.1,8.2,3,11.6
		c0,0.3,0.2,0.5,0.4,0.7c4.2,6.9,11.8,11.5,20.4,11.5c13.1,0,23.8-10.7,23.8-23.8C68.8,31.9,58.1,21.2,45,21.2 M66.5,44h-9
		c-0.1-3.3-0.5-6.5-1.2-9.3H64C65.5,37.5,66.4,40.7,66.5,44 M62.5,32.5h-6.8c-1.1-3.3-2.6-6.1-4.3-8.1
		C55.9,25.8,59.8,28.7,62.5,32.5 M45.9,23.5c3,0.6,5.7,4,7.4,8.9h-7.4V23.5z M43.7,23.6v8.8h-7C38.3,27.8,40.8,24.4,43.7,23.6
		 M38.6,24.4c-1.8,2-3.3,4.7-4.3,8.1h-6.8C30.2,28.7,34.1,25.8,38.6,24.4 M26,34.7h7.6c-0.7,2.8-1.1,6-1.2,9.3h-9
		C23.6,40.7,24.5,37.5,26,34.7 M27.5,57.6h6.8c1.1,3.3,2.6,6.1,4.3,8C34.1,64.2,30.2,61.3,27.5,57.6 M43.7,66.4
		c-2.8-0.8-5.3-4.1-7-8.8h7V66.4z M45.9,66.5v-8.9h7.4C51.6,62.5,48.9,65.9,45.9,66.5 M51.4,65.6c1.8-2,3.3-4.7,4.3-8h6.8
		C59.8,61.3,55.9,64.2,51.4,65.6 M63.9,55.3h-7.6c0.6-2.3,0.9-4.8,1.1-7.4c-0.2,0.5-0.5,0.9-0.9,1.3c-0.1,0.1-0.8,0.7-1.6,1.6
		c-0.2,1.6-0.5,3.1-0.9,4.6h-8.1v-0.7h-2.3v0.7H36c-0.2-0.9-0.4-1.8-0.6-2.8c-0.5-0.4-1.1-0.9-1.8-1.5c-0.3-0.3-0.6-0.6-0.9-1.1
		c0.2,1.9,0.5,3.7,0.9,5.4h-7.6c-1.5-2.7-2.4-5.8-2.6-9h9c0,0.2,0,0.3,0,0.5c0.2-0.5,0.5-1,0.9-1.3c0.1-0.1,0.4-0.4,0.9-0.9
		c0.2-0.2,0.3-0.3,0.5-0.5h0c0.1-3.3,0.5-6.5,1.3-9.3h7.7v0.9c0.5-0.2,3.4-1.4,4.3-1.8c0.3-0.1,0.9-0.3,1.6-0.3c0.2,0,0.5,0,0.7,0.1
		c0.8,0.1,1.5,0.6,2,1.2H54c0.4,1.6,0.7,3.3,1,5c0.6,1.2,1.4,2.8,2.3,4.8c0.1,0.3,0.4,0.9,0.4,1.7h8.8
		C66.3,49.5,65.4,52.6,63.9,55.3"/>
</g>
</svg>
