<?xml version="1.0" encoding="utf-8"?>
<!-- Generator: Adobe Illustrator 22.1.0, SVG Export Plug-In . SVG Version: 6.00 Build 0)  -->
<svg version="1.1" id="Layer_1" xmlns="http://www.w3.org/2000/svg" xmlns:xlink="http://www.w3.org/1999/xlink" x="0px" y="0px"
	 viewBox="0 0 101.5 100" enable-background="new 0 0 101.5 100" xml:space="preserve">
<path fill="none" stroke="#1D1160" stroke-width="4.4" d="M95,79.1c0,8.4-6.8,15.2-15.2,15.2H21.6c-8.4,0-15.2-6.8-15.2-15.2V20.9
	c0-8.4,6.8-15.2,15.2-15.2h58.2c8.4,0,15.2,6.8,15.2,15.2V79.1z"/>
<path fill="#1D1160" d="M44.2,51.7c0.6,0,1.1-0.5,1.1-1.1c0-0.6-0.5-1.1-1.1-1.1c-0.6,0-1.1,0.5-1.1,1.1
	C43,51.2,43.5,51.7,44.2,51.7"/>
<path fill-rule="evenodd" clip-rule="evenodd" fill="#1D1160" d="M66.4,51.5c0,0-6.8-14-7.1-14.5c-0.2-0.4-0.5-0.7-0.9-0.8
	c-0.5-0.1-1.1,0.2-1.1,0.2s-6.3,2.6-6.9,2.9c-0.8,0.4-1.4,1-1.4,1s-2.5,2.5-5.5,5.6c-0.1,0.1-0.2,0.3-0.1,0.4c0.1,0.1,0.5,0,0.6,0
	c2.4,0,4.4,1.8,4.4,4.3c0,2.2-1.9,4.2-4.4,4.2c-2.1,0-4.3-1.9-4.2-4.4c0-0.3,0.1-0.5-0.1-0.6c-0.2-0.1-0.3-0.1-0.4,0.1
	c-2.2,2.2-3.9,4-4.1,4.2c-0.3,0.3-0.5,0.8-0.5,1.2c0.1,0.7,0.5,1,0.5,1s4.8,4,5.4,4.4c0.5,0.3,1.1,0.3,1.1,0.3h15.7
	c0,0,0.5,0,0.9-0.1c0.3-0.1,0.7-0.6,0.7-0.6s6.9-6.5,7.2-6.8c0.3-0.3,0.5-0.6,0.5-1C66.7,52,66.4,51.5,66.4,51.5 M54.3,50.3
	c-0.3,0.3-0.4,0.9-0.4,1.8c0,0.5-0.2,1-0.6,1.3C52.9,53.8,52.5,54,52,54c-0.5,0-1-0.2-1.3-0.5c-0.4-0.4-0.5-0.8-0.5-1.3
	c0-0.5,0.2-1,0.6-1.3c0.4-0.4,0.8-0.6,1.3-0.6c0.9,0,1.5-0.1,1.9-0.5c0.3-0.3,0.5-0.9,0.5-1.9c0-0.5,0.2-1,0.6-1.3
	c0.4-0.4,0.8-0.5,1.3-0.5c0.5,0,1,0.2,1.3,0.5c0.4,0.4,0.5,0.8,0.5,1.3c0,0.5-0.2,1-0.5,1.3c-0.4,0.4-0.8,0.5-1.3,0.5
	C55.3,49.8,54.6,50,54.3,50.3 M58.5,54.5c-0.3,0.3-0.4,0.9-0.4,1.9c0,0.5-0.2,1-0.6,1.3c-0.4,0.4-0.8,0.5-1.3,0.5
	c-0.5,0-1-0.2-1.3-0.5c-0.4-0.4-0.5-0.8-0.5-1.3c0-0.5,0.2-1,0.6-1.3c0.4-0.4,0.8-0.6,1.3-0.6c0.9,0,1.5-0.1,1.9-0.5
	c0.3-0.3,0.4-0.9,0.4-1.8c0-0.5,0.2-1,0.6-1.3c0.4-0.4,0.8-0.5,1.3-0.5c0.5,0,1,0.2,1.3,0.5c0.4,0.4,0.5,0.8,0.5,1.3
	c0,0.5-0.2,1-0.5,1.3c-0.4,0.4-0.8,0.5-1.3,0.5C59.5,54,58.8,54.1,58.5,54.5 M50.9,49c-0.3-0.3-0.4-0.6-0.4-1.1c0-0.4,0.1-0.7,0.4-1
	c0.3-0.3,0.6-0.4,1.1-0.4c0.4,0,0.8,0.1,1.1,0.4c0.3,0.3,0.4,0.6,0.4,1c0,0.4-0.1,0.8-0.4,1.1c-0.3,0.3-0.6,0.4-1.1,0.4
	S51.2,49.3,50.9,49 M59.3,49c-0.3-0.3-0.4-0.6-0.4-1.1c0-0.4,0.1-0.7,0.4-1c0.3-0.3,0.6-0.4,1.1-0.4c0.4,0,0.8,0.1,1.1,0.4
	c0.3,0.3,0.4,0.6,0.4,1c0,0.4-0.1,0.8-0.4,1.1c-0.3,0.3-0.6,0.4-1.1,0.4C60,49.5,59.6,49.3,59.3,49 M55.1,53.2
	c-0.3-0.3-0.4-0.7-0.4-1.1c0-0.4,0.1-0.8,0.4-1c0.3-0.3,0.6-0.4,1.1-0.4c0.4,0,0.8,0.1,1.1,0.4c0.3,0.3,0.4,0.6,0.4,1
	c0,0.4-0.1,0.8-0.4,1.1c-0.3,0.3-0.6,0.4-1.1,0.4C55.8,53.6,55.4,53.5,55.1,53.2 M50.9,57.4c-0.3-0.3-0.4-0.6-0.4-1.1
	c0-0.4,0.1-0.8,0.4-1c0.3-0.3,0.6-0.4,1.1-0.4c0.4,0,0.8,0.1,1.1,0.4c0.3,0.3,0.4,0.6,0.4,1c0,0.4-0.1,0.8-0.4,1.1
	c-0.3,0.3-0.6,0.4-1.1,0.4S51.2,57.7,50.9,57.4"/>
<path fill="#1D1160" d="M50.8,16c-12.4,0-23.2,6.6-29.2,16.6c-0.2,0.2-0.4,0.5-0.5,0.8C18.3,38.3,16.7,44,16.7,50
	c0,6,1.6,11.7,4.3,16.6c0.1,0.4,0.3,0.7,0.5,0.9c6,9.9,16.8,16.5,29.1,16.5c18.8,0,34-15.3,34-34C84.8,31.2,69.5,16,50.8,16
	 M81.5,48.6H68.6c-0.1-4.8-0.7-9.3-1.7-13.3h10.9C80,39.3,81.3,43.8,81.5,48.6 M75.8,32.1h-9.7c-1.5-4.8-3.7-8.7-6.2-11.5
	C66.4,22.6,71.9,26.7,75.8,32.1 M52,19.3c4.3,0.8,8.1,5.7,10.6,12.8H52V19.3z M48.8,19.5v12.6h-9.9C41.2,25.4,44.8,20.7,48.8,19.5
	 M41.6,20.6c-2.5,2.8-4.7,6.8-6.2,11.5h-9.7C29.6,26.7,35.1,22.6,41.6,20.6 M23.7,35.3h10.9c-1,4-1.6,8.5-1.7,13.3H20
	C20.2,43.8,21.5,39.3,23.7,35.3 M25.7,67.9h9.7c1.5,4.7,3.6,8.7,6.2,11.5C35.2,77.4,29.6,73.3,25.7,67.9 M48.8,80.5
	c-4-1.2-7.6-5.9-9.9-12.6h9.9V80.5z M52,80.7V67.9h10.6C60.1,75,56.3,79.8,52,80.7 M59.9,79.4c2.5-2.8,4.7-6.7,6.2-11.5h9.7
	C71.9,73.3,66.3,77.4,59.9,79.4 M77.8,64.7H67c0.8-3.3,1.3-6.8,1.6-10.6c-0.3,0.7-0.7,1.3-1.3,1.8c-0.1,0.1-1.1,1-2.4,2.2
	c-0.3,2.3-0.7,4.5-1.3,6.5H52v-1h-3.2v1H37.9c-0.3-1.3-0.6-2.6-0.9-4c-0.7-0.5-1.5-1.2-2.6-2.1c-0.5-0.4-0.9-0.9-1.2-1.5
	c0.3,2.7,0.7,5.3,1.3,7.6H23.7c-2.1-3.9-3.4-8.2-3.7-12.9h12.8c0,0.2,0,0.5,0,0.7c0.3-0.7,0.7-1.4,1.2-1.9c0.1-0.1,0.6-0.6,1.2-1.3
	c0.2-0.2,0.5-0.5,0.7-0.8h-0.1c0.1-4.8,0.8-9.3,1.8-13.3h10.9v1.2c0.7-0.3,4.9-2,6.2-2.6c0.4-0.2,1.3-0.5,2.3-0.5c0.3,0,0.7,0,1,0.1
	c1.1,0.2,2.1,0.8,2.9,1.7h2.4c0.6,2.3,1.1,4.7,1.4,7.2c0.9,1.7,1.9,4,3.3,6.9c0.2,0.4,0.6,1.3,0.6,2.4h12.5
	C81.2,56.5,79.9,60.8,77.8,64.7"/>
</svg>
