<?xml version="1.0" encoding="utf-8"?>
<!-- Generator: Adobe Illustrator 22.1.0, SVG Export Plug-In . SVG Version: 6.00 Build 0)  -->
<svg version="1.1" id="One_icon" xmlns="http://www.w3.org/2000/svg" xmlns:xlink="http://www.w3.org/1999/xlink" x="0px" y="0px"
	 viewBox="0 0 317 122" style="enable-background:new 0 0 317 122;" xml:space="preserve">
<style type="text/css">
	.st0{fill:#FFFFFF;}
</style>
<g>
	<path id="icon" class="st0" d="M150.2,40.6c0.4,0.4,0.9,0.5,1.4,0.5c0.6,0,1.2-0.2,1.6-0.7c0.8-0.9,0.7-2.3-0.2-3
		c-3.1-2.7-4.9-6.7-4.9-10.8c0-7.9,6.5-14.4,14.4-14.4c7.9,0,14.4,6.5,14.4,14.4c0,4.1-1.8,8-4.9,10.8c-0.9,0.8-1,2.2-0.2,3
		c0.8,0.9,2.2,1,3,0.2c4-3.6,6.3-8.7,6.3-14c0-10.3-8.4-18.7-18.7-18.7c-10.3,0-18.7,8.4-18.7,18.7C143.8,31.9,146.1,37,150.2,40.6z
		 M210.5,23.5l-8.1-8.1c-0.8-0.8-2.2-0.8-3.1,0c-0.8,0.8-0.8,2.2,0,3.1l6.6,6.6l-6.6,6.6c-0.8,0.8-0.8,2.2,0,3.1
		c0.4,0.4,1,0.6,1.5,0.6s1.1-0.2,1.5-0.6l8.1-8.1C211.3,25.7,211.3,24.3,210.5,23.5z M192.9,25l-6.6,6.6c-0.8,0.8-0.8,2.2,0,3.1
		c0.4,0.4,1,0.6,1.5,0.6s1.1-0.2,1.5-0.6l8.1-8.1c0.8-0.8,0.8-2.2,0-3.1l-8.1-8.1c-0.8-0.8-2.2-0.8-3.1,0c-0.8,0.8-0.8,2.2,0,3.1
		L192.9,25z M126.4,15.3c-0.8-0.8-2.2-0.8-3.1,0l-8.1,8.1c-0.8,0.8-0.8,2.2,0,3.1l8.1,8.1c0.4,0.4,1,0.6,1.5,0.6
		c0.6,0,1.1-0.2,1.5-0.6c0.8-0.8,0.8-2.2,0-3.1l-6.6-6.6l6.6-6.6C127.2,17.6,127.2,16.2,126.4,15.3z M137.8,35.3
		c0.6,0,1.1-0.2,1.5-0.6c0.8-0.8,0.8-2.2,0-3.1l-6.6-6.6l6.6-6.6c0.8-0.8,0.8-2.2,0-3.1c-0.8-0.8-2.2-0.8-3.1,0l-8.1,8.1
		c-0.8,0.8-0.8,2.2,0,3.1l8.1,8.1C136.7,35.1,137.3,35.3,137.8,35.3z"/>
	<path class="st0" d="M189.2,115h-20.7c-7.8,0-14.7-3.5-19-9.6l-20.5-29c-2.4-3.4-1.7-8.3,1.6-10.9l0,0c0.1-0.1,0.1-0.1,0.2-0.2
		c3-2.3,7-2.2,9.8,0.2l11.9,10l2.1-50c0.2-4.4,3.7-7.9,7.9-7.9h0.1c4.2,0,7.7,3.5,7.9,7.8l1,24.6c1.3-0.9,2.8-1.5,4.5-1.5h0.1
		c3.4,0,6.5,2.4,7.5,5.7c1.3-0.8,2.7-1.3,4.3-1.3h0.1c3.3,0,6.2,2,7.4,4.9c1-0.6,2.1-0.9,3.1-0.9h0.1c3.6,0,6.7,3.1,6.9,6.9
		c0,0,0,0,0,0.1l0.3,33.7c0.2,4.5-1.4,8.8-4.6,12.1C198.2,113.2,193.9,115,189.2,115z M133.2,68.3c-0.1,0.1-0.1,0.1-0.2,0.1
		c-1.7,1.3-2.1,4-0.9,5.8l20.5,29c3.6,5.1,9.3,8,15.9,8h20.7c3.6,0,7-1.4,9.4-4c2.4-2.5,3.7-5.8,3.5-9.4c0,0,0,0,0-0.1l-0.3-33.7
		c-0.1-1.7-1.5-3.2-3.1-3.2h-0.1c-1.2,0-2.2,1-2.7,2c-0.4,0.8-1.2,1.2-2.1,1c-0.8-0.2-1.5-0.9-1.5-1.8l-0.1-1.4
		c-0.1-2.2-1.9-3.8-4.1-3.8h-0.1c-1.8,0-3.4,1.2-3.9,2.9c-0.3,0.9-1.1,1.4-2.1,1.3c-0.9-0.1-1.6-0.9-1.6-1.8l-0.1-2.5
		c-0.1-2.3-2-4.3-4.1-4.3h-0.1c-2.1,0-4,1.9-4.1,4.2l0,1.3c0,1-0.9,1.8-1.9,1.8c-1,0-1.9-0.8-1.9-1.8l-1.3-32.3
		c-0.1-2.3-2-4.2-4.1-4.2h-0.1c-2.1,0-4,2-4.1,4.3l-2.2,53.8c0,0.7-0.5,1.4-1.1,1.7c-0.7,0.3-1.4,0.2-2-0.3l-14.9-12.4
		C136.8,67.3,134.7,67.2,133.2,68.3z"/>
</g>
<path class="st0" d="M253.7,91c-0.8,0-1.6-0.3-2.3-0.8c-1.5-1.3-1.7-3.5-0.4-4.9l14.8-17.5l-14.8-17.5c-1.3-1.5-1.1-3.7,0.4-4.9
	c1.5-1.2,3.7-1.1,4.9,0.4l16.8,19.8c1.1,1.3,1.1,3.2,0,4.5l-16.8,19.8C255.7,90.6,254.7,91,253.7,91z"/>
<path class="st0" d="M288.5,91c-0.8,0-1.6-0.3-2.3-0.8c-1.5-1.3-1.7-3.5-0.4-4.9l14.8-17.5l-14.8-17.5c-1.3-1.5-1.1-3.7,0.4-4.9
	c1.5-1.2,3.7-1.1,4.9,0.4l16.8,19.8c1.1,1.3,1.1,3.2,0,4.5l-16.8,19.8C290.4,90.6,289.4,91,288.5,91z"/>
<path class="st0" d="M64.2,91c-1,0-2-0.4-2.7-1.2L44.8,70c-1.1-1.3-1.1-3.2,0-4.5l16.8-19.8c1.3-1.5,3.5-1.7,4.9-0.4
	c1.5,1.3,1.7,3.5,0.4,4.9L52.1,67.8l14.8,17.5c1.3,1.5,1.1,3.7-0.4,4.9C65.8,90.7,65,91,64.2,91z"/>
<path class="st0" d="M29.5,91c-1,0-2-0.4-2.7-1.2L10.1,70c-1.1-1.3-1.1-3.2,0-4.5l16.8-19.8c1.2-1.5,3.5-1.7,4.9-0.4
	c1.5,1.3,1.7,3.5,0.4,4.9L17.4,67.8l14.8,17.5c1.3,1.5,1.1,3.7-0.4,4.9C31.1,90.7,30.3,91,29.5,91z"/>
</svg>
