<?xml version="1.0" encoding="utf-8"?>
<!-- Generator: Adobe Illustrator 22.1.0, SVG Export Plug-In . SVG Version: 6.00 Build 0)  -->
<svg version="1.1" id="Layer_1" xmlns="http://www.w3.org/2000/svg" xmlns:xlink="http://www.w3.org/1999/xlink" x="0px" y="0px"
	 viewBox="0 0 90 90" enable-background="new 0 0 90 90" xml:space="preserve">
<g>
	<path fill="#FFFFFF" stroke="#FFFFFF" stroke-width="1.2295" stroke-miterlimit="10" d="M43.7,42.3H41l-5.1,6.3
		c-0.4,0.5-0.9,1.1-1.3,1.8h-0.1v-8.1h-2.2v16.8h2.2v-6.4l1.6-1.8l5.5,8.2h2.6l-6.5-9.7L43.7,42.3z"/>
	<path fill="#FFFFFF" stroke="#FFFFFF" stroke-width="1.2295" stroke-miterlimit="10" d="M52.6,52H56v5c-0.5,0.3-1.5,0.4-2.9,0.4
		c-3.9,0-6.5-2.5-6.5-6.8c0-4.2,2.7-6.7,6.7-6.7c1.7,0,2.8,0.3,3.7,0.7l0.5-1.8c-0.7-0.3-2.3-0.8-4.2-0.8c-5.6,0-9.1,3.7-9.1,8.7
		c0,2.6,0.9,4.9,2.3,6.2c1.6,1.6,3.7,2.2,6.3,2.2c2.3,0,4.2-0.5,5.2-0.9v-8.1h-5.5V52z"/>
	<path fill="#FFFFFF" stroke="#FFFFFF" stroke-width="1.2295" stroke-miterlimit="10" d="M40.5,29h9l0.3-0.4c1-1.1,1.5-2.5,1.5-4.1
		c0-3.5-2.8-6.3-6.3-6.3c-3.5,0-6.3,2.8-6.3,6.3c0,1.4,0.5,2.9,1.5,4L40.5,29z M44.9,20.4c2.4,0,4.2,1.9,4.2,4.2
		c0,0.8-0.2,1.6-0.7,2.3h-7c-0.4-0.6-0.7-1.4-0.7-2.3C40.7,22.3,42.6,20.4,44.9,20.4z"/>
	<path fill="#FFFFFF" stroke="#FFFFFF" stroke-width="1.2295" stroke-miterlimit="10" d="M66.5,26.9h-8.7c0.1-0.7,0.2-1.5,0.2-2.3
		c0-7.3-5.9-13.2-13.1-13.2c-7.2,0-13.1,5.9-13.1,13.2c0,0.8,0.1,1.5,0.2,2.3h-9.5L10.7,71.5h68.7L66.5,26.9z M24.2,29h10.6
		l-0.4-1.3c-0.3-1.1-0.4-2.1-0.4-3.1c0-6.1,4.9-11.1,11-11.1c6.1,0,11,5,11,11.1c0,1.1-0.2,2.1-0.4,3.1L55.1,29H65l11.6,40.3H13.4
		L24.2,29z"/>
</g>
</svg>
