<?xml version="1.0" encoding="utf-8"?>
<!-- Generator: Adobe Illustrator 22.1.0, SVG Export Plug-In . SVG Version: 6.00 Build 0)  -->
<svg version="1.1" id="Layer_1" xmlns="http://www.w3.org/2000/svg" xmlns:xlink="http://www.w3.org/1999/xlink" x="0px" y="0px"
	 viewBox="0 0 90 90" style="enable-background:new 0 0 90 90;" xml:space="preserve">
<style type="text/css">
	.st0{fill:#FFFFFF;}
</style>
<path class="st0" d="M68.9,25H53.5v-2c0-2.5-2-4.5-4.5-4.5h-8c-2.5,0-4.5,2-4.5,4.5v2H21.1c-4.3,0-7.8,3.5-7.8,7.8v27.6
	c0,4.3,3.5,7.8,7.8,7.8h0.2c0,0.1,0,0.1,0,0.2v1.5c0,0.9,0.7,1.6,1.6,1.6s1.6-0.7,1.6-1.6v-1.5c0-0.1,0-0.1,0-0.2h41
	c0,0.1,0,0.1,0,0.2v1.5c0,0.9,0.7,1.6,1.6,1.6s1.6-0.7,1.6-1.6v-1.5c0-0.1,0-0.1,0-0.2h0.2c4.3,0,7.8-3.5,7.8-7.8V32.8
	C76.7,28.5,73.2,25,68.9,25z M61.1,27.6v38.1H28.9V27.6H61.1z M39,23.1c0-1.1,0.9-2,2-2h8c1.1,0,2,0.9,2,2v2H39V23.1z M15.8,60.4
	V32.8c0-2.9,2.4-5.3,5.3-5.3h5.3v38.1h-5.3C18.2,65.7,15.8,63.3,15.8,60.4z M74.2,60.4c0,2.9-2.4,5.3-5.3,5.3h-5.3V27.6h5.3
	c2.9,0,5.3,2.4,5.3,5.3V60.4z"/>
</svg>
