<?xml version="1.0" encoding="utf-8"?>
<!-- Generator: Adobe Illustrator 22.1.0, SVG Export Plug-In . SVG Version: 6.00 Build 0)  -->
<svg version="1.1" id="Isolation_Mode" xmlns="http://www.w3.org/2000/svg" xmlns:xlink="http://www.w3.org/1999/xlink" x="0px"
	 y="0px" viewBox="0 0 74 74" enable-background="new 0 0 74 74" xml:space="preserve">
<path fill="#EE3A43" d="M52.3,13.2c0,2.3,0.8,4.4,2.5,6c1.7,1.7,3.7,2.5,6,2.5c2.3,0,4.3-0.8,6-2.5c1.6-1.6,2.5-3.7,2.5-6.1
	c0-2.3-0.8-4.3-2.4-5.9c-1.6-1.7-3.6-2.5-6-2.5c-2.4,0-4.4,0.8-6,2.5C53.2,9,52.3,11,52.3,13.2z M4.6,13.2c0,2.3,0.8,4.4,2.5,6
	c1.7,1.7,3.7,2.5,6,2.5c2.4,0,4.3-0.8,6-2.5c1.6-1.6,2.5-3.7,2.5-6.1c0-2.3-0.8-4.3-2.4-5.9c-1.6-1.7-3.6-2.5-6-2.5
	c-2.4,0-4.4,0.8-6,2.5C5.5,9,4.6,11,4.6,13.2z M21.7,60.6c0-2.3-0.8-4.3-2.4-5.9c-1.6-1.7-3.6-2.5-6-2.5c-2.4,0-4.4,0.8-6,2.5
	c-1.7,1.7-2.5,3.7-2.5,5.9c0,2.3,0.8,4.4,2.5,6c1.7,1.7,3.7,2.5,6,2.5c2.4,0,4.3-0.8,6-2.5C20.8,65.1,21.7,63.1,21.7,60.6z M23.9,37
	c0-5.3,0.9-8.8,2.6-10.5c1.7-1.7,5.2-2.6,10.6-2.6c3,0,5.4-1,7.5-3.1c2.1-2,3.1-4.6,3.1-7.6c0-2.9-1-5.4-3.1-7.5
	c-2-2.1-4.5-3.1-7.5-3.1c-2.8,0-5.3,1-7.5,3.1c-2.1,2.1-3.2,4.6-3.2,7.5c0,5.3-0.8,8.7-2.6,10.5c-1.8,1.8-5.2,2.6-10.6,2.6
	c-3,0-5.5,1.1-7.6,3.1c-2.1,2.1-3.1,4.6-3.1,7.6c0,2.9,1,5.4,3.1,7.5c2.1,2.1,4.6,3.1,7.6,3.1c2.8,0,5.3-1,7.5-3.1
	C22.9,42.5,23.9,40,23.9,37z M43.1,31c-1.6-1.7-3.6-2.5-6-2.5c-2.4,0-4.4,0.8-6,2.5c-1.7,1.7-2.5,3.7-2.5,5.9c0,2.4,0.8,4.4,2.5,6
	c1.7,1.7,3.7,2.5,6,2.5c2.4,0,4.4-0.8,6-2.5c1.6-1.6,2.5-3.7,2.5-6.1C45.5,34.7,44.7,32.7,43.1,31z M71.5,36.9c0-2.9-1-5.4-3.1-7.5
	c-2-2.1-4.5-3.1-7.5-3.1c-2.9,0-5.4,1-7.5,3.1c-2.1,2.1-3.2,4.6-3.2,7.5c0,5.3-0.7,8.7-2.6,10.5c-1.8,1.8-5.2,2.6-10.6,2.6
	c-2.9,0-5.5,1.1-7.6,3.1c-2.1,2.1-3.1,4.6-3.1,7.6c0,2.9,1,5.4,3.1,7.5c2.1,2.1,4.6,3.1,7.6,3.1c2.9,0,5.4-1,7.5-3.1
	c2.1-2.1,3.2-4.6,3.2-7.5c0-5.3,0.9-8.8,2.6-10.5c1.7-1.7,5.2-2.6,10.6-2.6c2.9,0,5.4-1,7.5-3.1C70.5,42.5,71.5,40,71.5,36.9z"/>
</svg>
